<?xml version="1.0"?>
<svg xmlns="http://www.w3.org/2000/svg" height="512px" viewBox="0 0 512 512" width="512px" class=""><g><path d="m416 224c-17.671875 0-32 14.328125-32 32s14.328125 32 32 32 32-14.328125 32-32-14.328125-32-32-32zm0 48c-8.835938 0-16-7.164062-16-16s7.164062-16 16-16 16 7.164062 16 16-7.164062 16-16 16zm0 0" data-original="#000000" class="active-path" data-old_color="#5c6bc0" fill="#5c6bc0"/><path d="m488 160h-40v-24c-.027344-22.082031-17.917969-39.972656-40-40h-2.039062l19.773437-42.777344-57.734375-26.726562v-26.496094h-256v50.96875l-70.59375 19.3125 7.042969 25.71875h-48.449219v320h29.976562l-7.503906 34.273438 81.527344 17.773437v43.953125h256v-59.488281l49.832031-13.601563-6.265625-22.910156h4.433594c22.082031-.027344 39.972656-17.917969 40-40v-56h40c13.253906 0 24-10.746094 24-24v-112c0-13.253906-10.746094-24-24-24zm-120-115.878906 36.503906 16.894531-16.175781 34.984375h-20.328125zm-16-28.121094v80h-36l-21.871094-80zm-224 0h111.808594l-111.808594 30.59375zm151.136719 5.832031 20.296875 74.167969h-234.402344l-4-14.503906zm-175.136719 429.839844-62.472656-13.601563 4.871094-22.070312h57.601562zm16 44.328125v-80h16l21.894531 80zm224 0h-142.945312l142.945312-39.113281zm-171.894531-8.664062-19.519531-71.335938h234.398437l3.199219 11.664062zm259.894531-111.335938c0 13.253906-10.746094 24-24 24h-392v-16h48v-16h-48v-224h48v-16h-48v-16h392c13.253906 0 24 10.746094 24 24v56h-16c-35.347656 0-64 28.652344-64 64s28.652344 64 64 64h16zm64-80c0 4.417969-3.582031 8-8 8h-72c-26.507812 0-48-21.492188-48-48s21.492188-48 48-48h72c2.726562 0 5.429688-.460938 8-1.367188zm-8-104h-40v-16h40c4.417969 0 8 3.582031 8 8s-3.582031 8-8 8zm0 0" data-original="#000000" class="active-path" data-old_color="#5c6bc0" fill="#5c6bc0"/><path d="m176 352h16v-48h-32v-96h32v-48h-16v32h-32v128h32zm0 0" data-original="#000000" class="active-path" data-old_color="#5c6bc0" fill="#5c6bc0"/><path d="m272 284c-.003906-10.878906-4.925781-21.167969-13.390625-28 11.863281-9.585938 16.394531-25.609375 11.316406-39.992188-5.082031-14.378906-18.671875-24-33.925781-24.007812h-12v-32h-16v48h28c11.046875 0 20 8.953125 20 20s-8.953125 20-20 20v16c11.046875 0 20 8.953125 20 20s-8.953125 20-20 20h-28v48h16v-32h12c19.875-.023438 35.976562-16.125 36-36zm0 0" data-original="#000000" class="active-path" data-old_color="#5c6bc0" fill="#5c6bc0"/><path d="m194.496094 448-4.9375-18.105469-15.4375 4.210938 9.144531 33.566406 34.855469-9.558594-4.242188-15.433593zm0 0" data-original="#000000" class="active-path" data-old_color="#5c6bc0" fill="#5c6bc0"/><path d="m264.710938 61.113281 5.730468 20.992188 15.4375-4.210938-9.949218-36.4375-46.042969 12.589844 4.226562 15.433594zm0 0" data-original="#000000" class="active-path" data-old_color="#5c6bc0" fill="#5c6bc0"/><path d="m96 128h48v16h-48zm0 0" data-original="#000000" class="active-path" data-old_color="#5c6bc0" fill="#5c6bc0"/><path d="m96 368h48v16h-48zm0 0" data-original="#000000" class="active-path" data-old_color="#5c6bc0" fill="#5c6bc0"/><path d="m176 128h48v16h-48zm0 0" data-original="#000000" class="active-path" data-old_color="#5c6bc0" fill="#5c6bc0"/><path d="m176 368h48v16h-48zm0 0" data-original="#000000" class="active-path" data-old_color="#5c6bc0" fill="#5c6bc0"/><path d="m256 128h48v16h-48zm0 0" data-original="#000000" class="active-path" data-old_color="#5c6bc0" fill="#5c6bc0"/><path d="m256 368h48v16h-48zm0 0" data-original="#000000" class="active-path" data-old_color="#5c6bc0" fill="#5c6bc0"/><path d="m176 224h48v16h-48zm0 0" data-original="#000000" class="active-path" data-old_color="#5c6bc0" fill="#5c6bc0"/><path d="m176 272h48v16h-48zm0 0" data-original="#000000" class="active-path" data-old_color="#5c6bc0" fill="#5c6bc0"/><path d="m400 152v8h16v-8c0-13.253906-10.746094-24-24-24h-56v16h56c4.417969 0 8 3.582031 8 8zm0 0" data-original="#000000" class="active-path" data-old_color="#5c6bc0" fill="#5c6bc0"/><path d="m400 360c0 4.417969-3.582031 8-8 8h-56v16h56c13.253906 0 24-10.746094 24-24v-8h-16zm0 0" data-original="#000000" class="active-path" data-old_color="#5c6bc0" fill="#5c6bc0"/></g> </svg>
